<?xml version="1.0" encoding="UTF-8" standalone="no"?>
<svg
   width="1440"
   height="640"
   version="1.1"
   id="svg22"
   sodipodi:docname="bg-main-light.svg"
   inkscape:version="1.1.2 (0a00cf5339, 2022-02-04)"
   xmlns:inkscape="http://www.inkscape.org/namespaces/inkscape"
   xmlns:sodipodi="http://sodipodi.sourceforge.net/DTD/sodipodi-0.dtd"
   xmlns:xlink="http://www.w3.org/1999/xlink"
   xmlns="http://www.w3.org/2000/svg"
   xmlns:svg="http://www.w3.org/2000/svg">
  <sodipodi:namedview
     id="namedview24"
     pagecolor="#ffffff"
     bordercolor="#666666"
     borderopacity="1.0"
     inkscape:pageshadow="2"
     inkscape:pageopacity="0.0"
     inkscape:pagecheckerboard="0"
     showgrid="false"
     inkscape:zoom="0.23107639"
     inkscape:cx="1231.1946"
     inkscape:cy="441.41247"
     inkscape:window-width="1920"
     inkscape:window-height="1044"
     inkscape:window-x="1600"
     inkscape:window-y="0"
     inkscape:window-maximized="1"
     inkscape:current-layer="svg22" />
  <g
     opacity=".15"
     id="g8"
     style="fill:#008000;fill-opacity:1">
    <path
       fill="url(#a)"
       d="M439.57 249.55A2149.47 2149.47 0 0 1 1633.44 67.1l-12.48 93.17A2055.46 2055.46 0 0 0 479.3 334.74L25.06 546.6l-39.73-85.2z"
       id="path2"
       style="fill:#008000;fill-opacity:1" />
    <path
       fill="url(#b)"
       d="M272.3 265.93a2393.36 2393.36 0 0 1 1328.96 205.6l-44.42 94.78A2288.7 2288.7 0 0 0 286 369.7l-553.29 73.05-13.7-103.77z"
       opacity=".56"
       id="path4"
       style="fill:#008000;fill-opacity:1" />
    <path
       fill="url(#c)"
       d="M195.26 416.13a2149.47 2149.47 0 0 1 1204.86-83.21l-20.13 91.82A2055.46 2055.46 0 0 0 227.82 504.3l-470.18 173.62-32.56-88.18 470.18-173.62z"
       id="path6"
       style="fill:#008000;fill-opacity:1" />
  </g>
  <path
     fill="#fff"
     d="M-258 718.56 1485.12 201l182.93 616.12-1743.11 517.56z"
     id="path10"
     style="fill:#00ff00;fill-opacity:0" />
  <defs
     id="defs20">
    <linearGradient
       id="d">
      <stop
         offset=".58"
         stop-opacity="0"
         id="stop12" />
      <stop
         offset="1"
         id="stop14" />
    </linearGradient>
    <linearGradient
       xlink:href="#d"
       id="a"
       x1="793.5"
       x2="759.5"
       y1="261.5"
       y2="149.5"
       gradientUnits="userSpaceOnUse" />
    <linearGradient
       xlink:href="#d"
       id="b"
       x1="644.19"
       x2="645.54"
       y1="397.02"
       y2="266.7"
       gradientUnits="userSpaceOnUse" />
    <linearGradient
       xlink:href="#d"
       id="c"
       x1="547"
       x2="522.36"
       y1="457.27"
       y2="342.85"
       gradientUnits="userSpaceOnUse" />
  </defs>
</svg>
